<svg viewBox="0 0 200 200" xmlns="http://www.w3.org/2000/svg" xmlns:xlink="http://www.w3.org/1999/xlink">
  <defs>
    <filter id="noise">
      <feTurbulence type="fractalNoise" baseFrequency="0.9" numOctaves="4" result="noise" seed="2"/>
      <feDisplacementMap in="SourceGraphic" in2="noise" scale="0.5"/>
    </filter>
  </defs>
  <rect width="200" height="200" fill="#f8f5f0"/>
  <g opacity="0.08">
    <circle cx="12" cy="8" r="0.8"/>
    <circle cx="28" cy="15" r="0.6"/>
    <circle cx="42" cy="12" r="0.7"/>
    <circle cx="58" cy="18" r="0.5"/>
    <circle cx="74" cy="10" r="0.8"/>
    <circle cx="88" cy="14" r="0.6"/>
    <circle cx="104" cy="16" r="0.7"/>
    <circle cx="118" cy="9" r="0.5"/>
    <circle cx="134" cy="13" r="0.8"/>
    <circle cx="150" cy="11" r="0.6"/>
    <circle cx="166" cy="17" r="0.7"/>
    <circle cx="182" cy="12" r="0.5"/>
    <circle cx="198" cy="15" r="0.8"/>
    <circle cx="8" cy="32" r="0.7"/>
    <circle cx="24" cy="38" r="0.6"/>
    <circle cx="40" cy="35" r="0.5"/>
    <circle cx="56" cy="41" r="0.8"/>
    <circle cx="72" cy="33" r="0.6"/>
    <circle cx="88" cy="39" r="0.7"/>
    <circle cx="104" cy="36" r="0.5"/>
    <circle cx="120" cy="42" r="0.8"/>
    <circle cx="136" cy="34" r="0.6"/>
    <circle cx="152" cy="40" r="0.7"/>
    <circle cx="168" cy="37" r="0.5"/>
    <circle cx="184" cy="43" r="0.8"/>
    <circle cx="15" cy="58" r="0.6"/>
    <circle cx="32" cy="62" r="0.5"/>
    <circle cx="48" cy="55" r="0.8"/>
    <circle cx="64" cy="61" r="0.7"/>
    <circle cx="80" cy="57" r="0.6"/>
    <circle cx="96" cy="63" r="0.5"/>
    <circle cx="112" cy="58" r="0.8"/>
    <circle cx="128" cy="60" r="0.6"/>
    <circle cx="144" cy="56" r="0.7"/>
    <circle cx="160" cy="62" r="0.5"/>
    <circle cx="176" cy="59" r="0.8"/>
    <circle cx="192" cy="61" r="0.6"/>
    <circle cx="10" cy="82" r="0.5"/>
    <circle cx="26" cy="88" r="0.8"/>
    <circle cx="42" cy="84" r="0.7"/>
    <circle cx="58" cy="90" r="0.6"/>
    <circle cx="74" cy="86" r="0.5"/>
    <circle cx="90" cy="92" r="0.8"/>
    <circle cx="106" cy="87" r="0.6"/>
    <circle cx="122" cy="89" r="0.7"/>
    <circle cx="138" cy="85" r="0.5"/>
    <circle cx="154" cy="91" r="0.8"/>
    <circle cx="170" cy="88" r="0.6"/>
    <circle cx="186" cy="90" r="0.7"/>
    <circle cx="20" cy="110" r="0.5"/>
    <circle cx="36" cy="115" r="0.8"/>
    <circle cx="52" cy="112" r="0.6"/>
    <circle cx="68" cy="118" r="0.7"/>
    <circle cx="84" cy="114" r="0.5"/>
    <circle cx="100" cy="120" r="0.8"/>
    <circle cx="116" cy="116" r="0.6"/>
    <circle cx="132" cy="118" r="0.7"/>
    <circle cx="148" cy="113" r="0.5"/>
    <circle cx="164" cy="119" r="0.8"/>
    <circle cx="180" cy="115" r="0.6"/>
    <circle cx="196" cy="117" r="0.7"/>
    <circle cx="14" cy="140" r="0.5"/>
    <circle cx="30" cy="145" r="0.8"/>
    <circle cx="46" cy="142" r="0.6"/>
    <circle cx="62" cy="148" r="0.7"/>
    <circle cx="78" cy="144" r="0.5"/>
    <circle cx="94" cy="150" r="0.8"/>
    <circle cx="110" cy="146" r="0.6"/>
    <circle cx="126" cy="148" r="0.7"/>
    <circle cx="142" cy="143" r="0.5"/>
    <circle cx="158" cy="149" r="0.8"/>
    <circle cx="174" cy="145" r="0.6"/>
    <circle cx="190" cy="147" r="0.7"/>
    <circle cx="22" cy="168" r="0.5"/>
    <circle cx="38" cy="173" r="0.8"/>
    <circle cx="54" cy="170" r="0.6"/>
    <circle cx="70" cy="176" r="0.7"/>
    <circle cx="86" cy="172" r="0.5"/>
    <circle cx="102" cy="178" r="0.8"/>
    <circle cx="118" cy="174" r="0.6"/>
    <circle cx="134" cy="176" r="0.7"/>
    <circle cx="150" cy="171" r="0.5"/>
    <circle cx="166" cy="177" r="0.8"/>
    <circle cx="182" cy="173" r="0.6"/>
    <circle cx="198" cy="175" r="0.7"/>
  </g>
</svg>
